PathFileType	4	(X/Y/Z)	pose_F01_0-80.trc
DataRate	CameraRate	NumFrames	NumMarkers	Units	OrigDataRate	OrigDataStartFrame	OrigNumFrames
30	30	9	21	m	30	0	80
Frame#	Time	CHip			RHip			RKnee			RAnkle			RBigToe			RSmallToe			RHeel			LHip			LKnee			LAnkle			LBigToe			LSmallToe			LHeel			Neck			Nose			RShoulder			RElbow			RWrist			LShoulder			LElbow			LWrist			
		X1	Y1	Z1	X2	Y2	Z2	X3	Y3	Z3	X4	Y4	Z4	X5	Y5	Z5	X6	Y6	Z6	X7	Y7	Z7	X8	Y8	Z8	X9	Y9	Z9	X10	Y10	Z10	X11	Y11	Z11	X12	Y12	Z12	X13	Y13	Z13	X14	Y14	Z14	X15	Y15	Z15	X16	Y16	Z16	X17	Y17	Z17	X18	Y18	Z18	X19	Y19	Z19	X20	Y20	Z20	X21	Y21	Z21	
0	0.0	-0.21576583118094717	1.8322695364503379	-0.5711368186242818	-0.2334187660106633	1.8271925121642216	-0.5083824017477123	-0.23946338639346698	1.6976258087529748	-0.48759597066853694													-0.2019481763257368	1.8344903670043273	-0.6406619473905151	-0.20086354421379818	1.7061494322101722	-0.5915832640687865	-0.20495487766992548	1.5762106472285031	-0.5664785875604482	-0.217965186081676	1.5448994146497765	-0.6187957537513091	-0.2055999566754499	1.55972882802479	-0.6244315939592419				-0.20467138416927394	1.983810119300272	-0.5911129868003535	-0.21119070968273834	2.0483988495539585	-0.6277115941450266	-0.22949050298610407	1.9818927141559992	-0.5009901359422477	-0.2453272045967835	1.8966231106767024	-0.4639795837751685	-0.24845531142217828	1.8246856569400614	-0.4655406658946961	-0.17842748612678627	1.987207911265321	-0.6765435508178982	-0.16738543146539228	1.9129372965622191	-0.6930999975028144	-0.16920264319230668	1.8470972102370604	-0.7092060814863168
1	0.03333333333333333	-0.2139657165717471	1.832567655733849	-0.5732518587779767	-0.23150277205169706	1.828588777322626	-0.5107052766953863	-0.23946338639346698	1.6976258087529748	-0.48759597066853694													-0.19926141769126546	1.8345841224791037	-0.6397130819274275	-0.2008918236051731	1.7065753226193783	-0.5916724702271734	-0.20497238219333427	1.576226167393962	-0.5664606632861473	-0.2176580517479595	1.5460866842979264	-0.6194731109443652	-0.20628268198316702	1.5583861246332058	-0.6280245021820917				-0.2046488748648659	1.9839407280707615	-0.5911996319327228	-0.21118796348355495	2.048438280914962	-0.6277562092281151	-0.2294828838216418	1.9820227321929982	-0.501064784865913	-0.24320254392443158	1.898326389409145	-0.46633632004191644	-0.2481583996348976	1.8269642248850104	-0.4658169929101765	-0.17840334578297737	1.987194655399304	-0.676649989751693	-0.16737943329829222	1.9101946734207806	-0.6928358630414325	-0.1697080638634418	1.8415449908583392	-0.708566012813922
2	0.06666666666666667	-0.21216560196254702	1.8328657750173603	-0.5753668989316716	-0.22958677809273081	1.8299850424810302	-0.5130281516430604	-0.23946338639346698	1.6976258087529748	-0.48759597066853694													-0.1965746590567941	1.8346778779538802	-0.6387642164643399	-0.20092010299654803	1.7070012130285843	-0.5917616763855603	-0.20498988671674306	1.5762416875594205	-0.5664427390118464	-0.21735091741424298	1.5472739539460763	-0.6201504681374213	-0.20696540729088414	1.5570434212416215	-0.6316174104049416				-0.20462636556045788	1.984071336841251	-0.5912862770650922	-0.21118521728437156	2.0484777122759654	-0.6278008243112037	-0.22947526465717955	1.9821527502299972	-0.5011394337895783	-0.24107788325207966	1.9000296681415878	-0.46869305630866437	-0.24786148784761694	1.8292427928299595	-0.46609331992565683	-0.17837920543916846	1.9871813995332872	-0.6767564286854878	-0.16737343513119216	1.9074520502793422	-0.6925717285800507	-0.17021348453457694	1.835992771479618	-0.7079259441415271
3	0.1	-0.21236857005925028	1.8313434973061444	-0.5751693648429201	-0.23166693278866615	1.8282369962175324	-0.5106968860539972	-0.23946338639346698	1.6976258087529748	-0.48759597066853694													-0.1976495986741661	1.8332175796783476	-0.6416452542668339	-0.20085809855310072	1.7064876044350394	-0.5917424472955507	-0.20500739124015185	1.576257207724879	-0.5664248147375454	-0.21755408220859215	1.5459570026835732	-0.6195446852286293	-0.20686302738697646	1.5568225427503362	-0.631669013146074				-0.20459887946044206	1.9840071973031024	-0.5912939889665627	-0.2113648832290187	2.04669692984733	-0.627788517579096	-1.7499344536933985	1.8898141524517706	1.1823741957157388	-0.24306676379512884	1.8970441588238836	-0.4661326629440314	-0.24895711526298528	1.8270600889064212	-0.4690380403957271	-0.17917631819170884	1.986905064290514	-0.6798158282686113	-0.16736882415589432	1.9068686435446123	-0.6926567639296412	-0.16998425707566925	1.8393082003201373	-0.7084533574260483
4	0.13333333333333333	-0.21514422321106502	1.8322356809100828	-0.5763556952262644	-0.23253043026595677	1.829688840665377	-0.5139831415392299	-0.23946338639346698	1.6976258087529748	-0.48759597066853694													-0.19974159502543715	1.832881734849359	-0.6394013856729384	-0.2008377060222212	1.706182216576894	-0.5917368274433817	-0.20502489576356064	1.576272727890338	-0.5664068904632444	-0.2175030344953619	1.545452145188061	-0.6195805780871463	-0.20683866688277014	1.5564600838152534	-0.6316602326083371				-0.20378241836375752	1.983757868221103	-0.5883035804152905	-0.21053802889637563	2.0462460489016085	-0.6248979995227478	-1.7501996123538792	1.8898222678332146	1.1828204017709578	-0.24113045991594192	1.8971298310693758	-0.46817124237525315	-0.24880842000309003	1.828435278649159	-0.46925663863289513	-0.17838328952438906	1.9868218384007819	-0.6767892191699005	-0.16671372660075318	1.9045369212228695	-0.6894289412260578	-0.17104529535958957	1.8350982057964607	-0.7110692154581544
5	0.16666666666666666	-0.2143938198896818	1.8306575229950226	-0.5728556959921546	-0.23175178576568364	1.8282630026956284	-0.5106016314178775	-0.23946338639346698	1.6976258087529748	-0.48759597066853694													-0.19909475492262044	1.831820979417114	-0.6359827103268952	-0.19903003596871058	1.7050833965455812	-0.593519836617045	-0.20504240028696943	1.5762882480557967	-0.5663889661889435	-0.217648232865424	1.5462283637412577	-0.6195948574010913	-0.206879992781674	1.5568265121748244	-0.6316723260121752				-0.20378637895863244	1.9834379999610554	-0.5882898831075539	-0.21261103856415586	2.0434672965772775	-0.6223651379254173	-1.7505372862697708	1.8897637606619817	1.1834711724684008	-0.2423398279560634	1.8976493394935714	-0.46300709088682673	-0.24828134108526936	1.8273457250934713	-0.4656975148804522	-0.1791497056280289	1.9852104664057009	-0.6795861432770398	-0.16823828406782476	1.9075692539611897	-0.6959840919702712	-0.1743040947796164	1.8431877372334962	-0.7364293718185466
6	0.2	-0.21326976741983866	1.8338289944197785	-0.5701626370029166	-0.23140548845529335	1.8301833996743766	-0.5108178100673954	-0.23946338639346698	1.6976258087529748	-0.48759597066853694													-0.19867935675559972	1.8368791643975475	-0.6366435051761938	-0.20073067170733513	1.708214822619505	-0.5921203219842461	-0.20505990481037822	1.5763037682212553	-0.5663710419146425	-0.21854515095043825	1.5457363672520714	-0.62293300389412	-0.2075980091312051	1.5553136637471943	-0.6352015312068591				-0.20372231689404954	1.9838515191178687	-0.588096862851222	-0.21263488424567498	2.0438901351695713	-0.6220300636986179	-1.7600702179260135	1.8898308539374236	1.2007366199791394	-0.23682879155962924	1.9020642884120293	-0.45556825250964417	-0.2485498313992719	1.8327558570060065	-0.461128836060194	-0.17839741793189992	1.9866090063236885	-0.6768600204754803	-0.16521855712778657	1.9207960588433506	-0.6967000388954145	-0.16772256387228504	1.869912648004552	-0.7550859928509998
7	0.23333333333333334	-0.21521977763006137	1.8360695191296617	-0.5680252858498066	-0.23333815331200847	1.8337525802564245	-0.5089621992571777	-0.23946338639346698	1.6976258087529748	-0.48759597066853694													-0.19981678599322714	1.8391653977057076	-0.6313492574974247	-0.2009118030294439	1.7064403859530557	-0.5916583146613092	-0.20507740933378701	1.5763192883867139	-0.5663531176403416	-0.21842805887285943	1.5453565594153655	-0.6228054926532068	-0.20660114664134827	1.5549874725375903	-0.6319695316422116				-0.20566754904149465	1.9840772566367486	-0.5858718907678153	-0.21609901757652222	2.0397162892051757	-0.6145386040393966	-1.7603612726230373	1.889854320938469	1.2012339676773365	-0.23681980022275845	1.9001800590754865	-0.4466956560724967	-0.25148492108586634	1.8275860346037407	-0.4531136245879969	-0.1783519601087664	1.9877325635879897	-0.6766498320403943	-0.16072013248009262	1.9237477534780074	-0.7018237444199714	-0.1459743162515285	1.8910483183937326	-0.7528456269456337
8	0.26666666666666666	-0.21836517496892946	1.8350778097993388	-0.5604651044339151	-0.2342684826528897	1.831668483473894	-0.5034437397190803	-0.23946338639346698	1.6976258087529748	-0.48759597066853694													-0.2011637154906676	1.8375248597059906	-0.6256941638969491	-0.20012573256852711	1.707042018434504	-0.5883187583187718	-0.2050949138571958	1.5763348085521727	-0.5663351933660407	-0.2165790672564723	1.5455138327287716	-0.6162871931389869	-0.20594672599873798	1.5537945562526954	-0.6280514373275939				-0.2039275867425088	1.9840395620110394	-0.5795275411511587	-0.2182058733366739	2.0398340907914627	-0.6121665008763628	-1.783502027587841	1.889532980127033	1.240467526893603	-0.2398494281518106	1.8982010932059363	-0.43890057334434013	-0.25250133462156327	1.831381898056888	-0.43884620468533614	-0.178715859396028	1.9881671527421612	-0.6681212342451184	-1.2368340809634288	1.8426466167728726	0.38754142431898786	-1.1569555824258	1.8601472184937395	0.21217807755275153
